# Blender v2.90.1 OBJ File: 'Air sword.blend'
# www.blender.org
mtllib Air sword.mtl
o Cone
v 0.000000 -1.117484 -2.643476
v -0.391995 -1.000000 0.000000
v 0.000000 -1.000000 1.000000
v 0.391995 -1.000000 -0.000000
v 0.000000 1.117484 -2.573333
v -0.391995 -1.000000 0.000000
v 0.000000 -11.612845 -1.773703
v -0.391995 -11.612845 0.000000
v 0.000000 -11.612845 1.000000
v 0.391995 -11.612845 -0.000000
v -0.391995 -1.353762 0.000000
v -0.391995 -1.707523 0.000000
v -0.391995 -2.061285 0.000000
v -0.391995 -2.415046 0.000000
v -0.391995 -2.768807 0.000000
v -0.391995 -3.122569 0.000000
v -0.391995 -3.476330 0.000000
v -0.391995 -3.830092 0.000000
v -0.391995 -4.183853 0.000000
v -0.391995 -4.537615 0.000000
v -0.391995 -4.891376 0.000000
v -0.391995 -5.245138 0.000000
v -0.391995 -5.598900 0.000000
v -0.391995 -5.952662 0.000000
v -0.391995 -6.306423 0.000000
v -0.391995 -6.660185 0.000000
v -0.391995 -7.013947 0.000000
v -0.391995 -7.367708 0.000000
v -0.391995 -7.721470 0.000000
v -0.391995 -8.075232 0.000000
v -0.391995 -8.428993 0.000000
v -0.391995 -8.782755 0.000000
v -0.391995 -9.136517 0.000000
v -0.391995 -9.490278 0.000000
v -0.391995 -9.844040 0.000000
v -0.391995 -10.197801 0.000000
v -0.391995 -10.551561 0.000000
v -0.391995 -10.905323 0.000000
v -0.391995 -11.259085 0.000000
v 0.000000 -11.259084 -1.773703
v 0.000000 -10.905322 -1.580465
v 0.000000 -10.551560 -1.742501
v 0.000000 -10.197799 -1.742501
v 0.000000 -9.844037 -1.580465
v 0.000000 -9.490275 -1.687865
v 0.000000 -9.136514 -1.979279
v 0.000000 -8.782752 -1.561673
v 0.000000 -8.428990 -1.444938
v 0.000000 -8.075229 -1.444938
v 0.000000 -7.721467 -1.624275
v 0.000000 -7.367705 -1.624275
v 0.000000 -7.013944 -1.509468
v 0.000000 -6.660183 -1.509468
v 0.000000 -6.306421 -1.690821
v 0.000000 -5.952660 -1.690821
v 0.000000 -5.598898 -1.550434
v 0.000000 -5.245137 -1.550434
v 0.000000 -4.891376 -1.708686
v 0.000000 -4.537614 -1.708686
v 0.000000 -4.183853 -1.635884
v 0.000000 -3.830091 -1.654990
v 0.000000 -3.476330 -1.835127
v 0.000000 -3.122568 -2.040130
v 0.000000 -2.768807 -2.093475
v 0.000000 -2.415045 -2.096490
v 0.000000 -2.061284 -2.172633
v 0.000000 -1.707523 -2.341013
v 0.000000 -1.353761 -2.494824
v 0.391995 -11.259084 -0.000000
v 0.391995 -10.905322 -0.000000
v 0.391995 -10.551560 -0.000000
v 0.391995 -10.197799 -0.000000
v 0.391995 -9.844037 -0.000000
v 0.391995 -9.490275 0.003624
v 0.391995 -9.136514 -0.000000
v 0.391995 -8.782752 -0.000000
v 0.391995 -8.428990 -0.000000
v 0.391995 -8.075229 -0.000000
v 0.391995 -7.721467 -0.000000
v 0.391995 -7.367705 -0.000000
v 0.391995 -7.013944 -0.000000
v 0.391995 -6.660183 -0.000000
v 0.391995 -6.306421 -0.000000
v 0.391995 -5.952660 -0.000000
v 0.391995 -5.598898 -0.000000
v 0.391995 -5.245137 -0.000000
v 0.391995 -4.891376 -0.000000
v 0.391995 -4.537614 -0.000000
v 0.391995 -4.183853 -0.000000
v 0.391995 -3.830091 -0.000000
v 0.391995 -3.476330 -0.000000
v 0.391995 -3.122568 -0.000000
v 0.391995 -2.768807 -0.000000
v 0.391995 -2.415045 -0.000000
v 0.391995 -2.061284 -0.000000
v 0.391995 -1.707523 -0.000000
v 0.391995 -1.353761 -0.000000
v 0.000000 -11.259084 1.000000
v 0.000000 -10.905322 1.000000
v 0.000000 -10.551560 1.000000
v 0.000000 -10.197799 1.000000
v 0.000000 -9.844037 1.000000
v 0.000000 -9.490275 1.000000
v 0.000000 -9.136514 1.000000
v 0.000000 -8.782752 1.000000
v 0.000000 -8.428990 1.000000
v 0.000000 -8.075229 1.000000
v 0.000000 -7.721467 1.000000
v 0.000000 -7.367705 1.000000
v 0.000000 -7.013944 1.000000
v 0.000000 -6.660183 1.000000
v 0.000000 -6.306421 1.000000
v 0.000000 -5.952660 1.000000
v 0.000000 -5.598898 1.000000
v 0.000000 -5.245137 1.000000
v 0.000000 -4.891376 1.000000
v 0.000000 -4.537614 1.000000
v 0.000000 -4.183853 1.000000
v 0.000000 -3.830091 1.000000
v 0.000000 -3.476330 1.000000
v 0.000000 -3.122568 1.000000
v 0.000000 -2.768807 1.000000
v 0.000000 -2.415045 1.000000
v 0.000000 -2.061284 1.000000
v 0.000000 -1.707523 1.000000
v 0.000000 -1.353761 1.000000
v -0.000000 -11.612847 -3.909913
v -1.110688 -11.612847 0.354631
v 0.000000 -11.612847 3.506379
v 1.110688 -11.612847 0.354631
v 0.000000 -12.044891 -0.242426
v -0.012155 -12.044891 -0.187428
v 0.000000 -12.044891 -0.156420
v 0.012155 -12.044891 -0.187428
v 0.000000 -15.626223 -0.479605
v 0.000000 -11.659918 -0.479605
v 0.109693 -15.626223 -0.470390
v 0.109693 -11.659918 -0.470390
v 0.215170 -15.626223 -0.443098
v 0.215170 -11.659918 -0.443098
v 0.312378 -15.626223 -0.398777
v 0.312378 -11.659918 -0.398777
v 0.397582 -15.626223 -0.339132
v 0.397582 -11.659918 -0.339132
v 0.467507 -15.626223 -0.266455
v 0.467507 -11.659918 -0.266455
v 0.519466 -15.626223 -0.183537
v 0.519466 -11.659918 -0.183537
v 0.551462 -15.626223 -0.093567
v 0.551462 -11.659918 -0.093567
v 0.562266 -15.626223 -0.000000
v 0.562266 -11.659918 -0.000000
v 0.551462 -15.626223 0.093566
v 0.551462 -11.659918 0.093566
v 0.519466 -15.626223 0.183537
v 0.519466 -11.659918 0.183537
v 0.467507 -15.626223 0.266454
v 0.467507 -11.659918 0.266454
v 0.397582 -15.626223 0.339132
v 0.397582 -11.659918 0.339132
v 0.312378 -15.626223 0.398777
v 0.312378 -11.659918 0.398777
v 0.215170 -15.626223 0.443097
v 0.215170 -11.659918 0.443097
v 0.109692 -15.626223 0.470390
v 0.109692 -11.659918 0.470390
v -0.000000 -15.626223 0.479605
v -0.000000 -11.659918 0.479605
v -0.109693 -15.626223 0.470390
v -0.109693 -11.659918 0.470390
v -0.215170 -15.626223 0.443097
v -0.215170 -11.659918 0.443097
v -0.312378 -15.626223 0.398777
v -0.312378 -11.659918 0.398777
v -0.397582 -15.626223 0.339132
v -0.397582 -11.659918 0.339132
v -0.467507 -15.626223 0.266454
v -0.467507 -11.659918 0.266454
v -0.519466 -15.626223 0.183536
v -0.519466 -11.659918 0.183536
v -0.551462 -15.626223 0.093566
v -0.551462 -11.659918 0.093566
v -0.562266 -15.626223 -0.000001
v -0.562266 -11.659918 -0.000001
v -0.551462 -15.626223 -0.093567
v -0.551462 -11.659918 -0.093567
v -0.519466 -15.626223 -0.183538
v -0.519466 -11.659918 -0.183538
v -0.467506 -15.626223 -0.266455
v -0.467506 -11.659918 -0.266455
v -0.397581 -15.626223 -0.339133
v -0.397581 -11.659918 -0.339133
v -0.312377 -15.626223 -0.398778
v -0.312377 -11.659918 -0.398778
v -0.215169 -15.626223 -0.443098
v -0.215169 -11.659918 -0.443098
v -0.109692 -15.626223 -0.470390
v -0.109692 -11.659918 -0.470390
vt 0.250000 0.490000
vt 0.490000 0.250000
vt 0.250000 0.250000
vt 0.250000 0.010000
vt 0.250000 0.490000
vt 0.250000 0.490000
vt 0.490000 0.250000
vt 0.490000 0.250000
vt 0.010000 0.250000
vt 0.250000 0.010000
vt 0.250000 0.010000
vt 0.010000 0.250000
vt 0.010000 0.250000
vt 0.010000 0.250000
vt 0.250000 0.010000
vt 0.490000 0.250000
vt 0.250000 0.010000
vt 0.490000 0.250000
vt 0.250000 0.010000
vt 0.490000 0.250000
vt 0.250000 0.010000
vt 0.490000 0.250000
vt 0.250000 0.010000
vt 0.490000 0.250000
vt 0.250000 0.010000
vt 0.490000 0.250000
vt 0.250000 0.010000
vt 0.490000 0.250000
vt 0.250000 0.010000
vt 0.490000 0.250000
vt 0.250000 0.010000
vt 0.490000 0.250000
vt 0.250000 0.010000
vt 0.490000 0.250000
vt 0.250000 0.010000
vt 0.490000 0.250000
vt 0.250000 0.010000
vt 0.490000 0.250000
vt 0.250000 0.010000
vt 0.490000 0.250000
vt 0.250000 0.010000
vt 0.490000 0.250000
vt 0.250000 0.010000
vt 0.490000 0.250000
vt 0.250000 0.010000
vt 0.490000 0.250000
vt 0.250000 0.010000
vt 0.490000 0.250000
vt 0.250000 0.010000
vt 0.490000 0.250000
vt 0.250000 0.010000
vt 0.490000 0.250000
vt 0.250000 0.010000
vt 0.490000 0.250000
vt 0.250000 0.010000
vt 0.490000 0.250000
vt 0.250000 0.010000
vt 0.490000 0.250000
vt 0.250000 0.010000
vt 0.490000 0.250000
vt 0.250000 0.010000
vt 0.490000 0.250000
vt 0.250000 0.010000
vt 0.490000 0.250000
vt 0.250000 0.010000
vt 0.490000 0.250000
vt 0.250000 0.010000
vt 0.490000 0.250000
vt 0.250000 0.010000
vt 0.490000 0.250000
vt 0.250000 0.010000
vt 0.010000 0.250000
vt 0.010000 0.250000
vt 0.010000 0.250000
vt 0.010000 0.250000
vt 0.010000 0.250000
vt 0.010000 0.250000
vt 0.010000 0.250000
vt 0.010000 0.250000
vt 0.010000 0.250000
vt 0.010000 0.250000
vt 0.010000 0.250000
vt 0.010000 0.250000
vt 0.010000 0.250000
vt 0.010000 0.250000
vt 0.010000 0.250000
vt 0.010000 0.250000
vt 0.010000 0.250000
vt 0.010000 0.250000
vt 0.010000 0.250000
vt 0.010000 0.250000
vt 0.010000 0.250000
vt 0.010000 0.250000
vt 0.010000 0.250000
vt 0.010000 0.250000
vt 0.010000 0.250000
vt 0.010000 0.250000
vt 0.010000 0.250000
vt 0.010000 0.250000
vt 0.250000 0.490000
vt 0.250000 0.490000
vt 0.250000 0.490000
vt 0.250000 0.490000
vt 0.250000 0.490000
vt 0.250000 0.490000
vt 0.250000 0.490000
vt 0.250000 0.490000
vt 0.250000 0.490000
vt 0.250000 0.490000
vt 0.250000 0.490000
vt 0.250000 0.490000
vt 0.250000 0.490000
vt 0.250000 0.490000
vt 0.250000 0.490000
vt 0.250000 0.490000
vt 0.250000 0.490000
vt 0.250000 0.490000
vt 0.250000 0.490000
vt 0.250000 0.490000
vt 0.250000 0.490000
vt 0.250000 0.490000
vt 0.250000 0.490000
vt 0.250000 0.490000
vt 0.250000 0.490000
vt 0.250000 0.490000
vt 0.250000 0.490000
vt 0.250000 0.490000
vt 0.490000 0.250000
vt 0.490000 0.250000
vt 0.250000 0.010000
vt 0.250000 0.490000
vt 0.750000 0.490000
vt 0.510000 0.250000
vt 0.750000 0.010000
vt 0.990000 0.250000
vt 0.010000 0.250000
vt 0.250000 0.490000
vt 1.000000 0.500000
vt 0.968750 0.500000
vt 0.968750 1.000000
vt 1.000000 1.000000
vt 0.937500 0.500000
vt 0.937500 1.000000
vt 0.906250 0.500000
vt 0.906250 1.000000
vt 0.875000 0.500000
vt 0.875000 1.000000
vt 0.843750 0.500000
vt 0.843750 1.000000
vt 0.812500 0.500000
vt 0.812500 1.000000
vt 0.781250 0.500000
vt 0.781250 1.000000
vt 0.750000 0.500000
vt 0.750000 1.000000
vt 0.718750 0.500000
vt 0.718750 1.000000
vt 0.687500 0.500000
vt 0.687500 1.000000
vt 0.656250 0.500000
vt 0.656250 1.000000
vt 0.625000 0.500000
vt 0.625000 1.000000
vt 0.593750 0.500000
vt 0.593750 1.000000
vt 0.562500 0.500000
vt 0.562500 1.000000
vt 0.531250 0.500000
vt 0.531250 1.000000
vt 0.500000 0.500000
vt 0.500000 1.000000
vt 0.468750 0.500000
vt 0.468750 1.000000
vt 0.437500 0.500000
vt 0.437500 1.000000
vt 0.406250 0.500000
vt 0.406250 1.000000
vt 0.375000 0.500000
vt 0.375000 1.000000
vt 0.343750 0.500000
vt 0.343750 1.000000
vt 0.312500 0.500000
vt 0.312500 1.000000
vt 0.281250 0.500000
vt 0.281250 1.000000
vt 0.250000 0.500000
vt 0.250000 1.000000
vt 0.218750 0.500000
vt 0.218750 1.000000
vt 0.187500 0.500000
vt 0.187500 1.000000
vt 0.156250 0.500000
vt 0.156250 1.000000
vt 0.125000 0.500000
vt 0.125000 1.000000
vt 0.093750 0.500000
vt 0.093750 1.000000
vt 0.062500 0.500000
vt 0.062500 1.000000
vt 0.796822 0.485388
vt 0.841844 0.471731
vt 0.883337 0.449553
vt 0.919706 0.419706
vt 0.949553 0.383337
vt 0.971731 0.341844
vt 0.985388 0.296822
vt 0.990000 0.250000
vt 0.985389 0.203178
vt 0.971731 0.158156
vt 0.949553 0.116663
vt 0.919706 0.080294
vt 0.883337 0.050447
vt 0.841844 0.028269
vt 0.796822 0.014612
vt 0.750000 0.010000
vt 0.703178 0.014612
vt 0.658156 0.028269
vt 0.616663 0.050447
vt 0.580294 0.080294
vt 0.550447 0.116663
vt 0.528269 0.158156
vt 0.514611 0.203179
vt 0.510000 0.250000
vt 0.514612 0.296822
vt 0.528269 0.341844
vt 0.550447 0.383337
vt 0.580295 0.419706
vt 0.616663 0.449553
vt 0.658156 0.471731
vt 0.703179 0.485389
vt 0.750000 0.490000
vt 0.031250 0.500000
vt 0.031250 1.000000
vt 0.000000 0.500000
vt 0.000000 1.000000
vt 0.250000 0.490000
vt 0.203179 0.485389
vt 0.158156 0.471731
vt 0.116663 0.449553
vt 0.080295 0.419706
vt 0.050447 0.383337
vt 0.028269 0.341844
vt 0.014612 0.296822
vt 0.010000 0.250000
vt 0.014611 0.203179
vt 0.028269 0.158156
vt 0.050447 0.116663
vt 0.080294 0.080294
vt 0.116663 0.050447
vt 0.158156 0.028269
vt 0.203178 0.014612
vt 0.250000 0.010000
vt 0.296822 0.014612
vt 0.341844 0.028269
vt 0.383337 0.050447
vt 0.419706 0.080294
vt 0.449553 0.116663
vt 0.471731 0.158156
vt 0.485388 0.203178
vt 0.490000 0.250000
vt 0.485388 0.296822
vt 0.471731 0.341844
vt 0.449553 0.383337
vt 0.419706 0.419706
vt 0.383337 0.449553
vt 0.341844 0.471731
vt 0.296822 0.485388
vn 0.0000 -0.0872 -0.9962
vn -0.9650 0.2020 0.1669
vn 0.0000 0.8145 -0.5801
vn 0.0000 0.3993 0.9168
vn 0.0000 0.1141 -0.9934
vn 0.0000 0.9933 -0.1151
vn -0.6252 0.7789 0.0489
vn -0.9970 0.0162 0.0751
vn 0.9650 0.2020 0.1669
vn 0.0000 0.9792 0.2028
vn 0.0000 0.0397 0.9992
vn 0.9832 0.1533 0.0990
vn 0.6252 0.7789 0.0489
vn 0.9970 0.0162 0.0751
vn 0.0000 0.0000 1.0000
vn -0.9939 -0.0188 0.1088
vn -0.9944 -0.0196 0.1035
vn -0.9950 -0.0156 0.0983
vn -0.9955 -0.0052 0.0950
vn -0.9956 -0.0038 0.0935
vn -0.9958 -0.0186 0.0900
vn -0.9962 -0.0295 0.0818
vn -0.9972 -0.0162 0.0731
vn -0.9975 0.0045 0.0707
vn -0.9973 0.0061 0.0728
vn -0.9973 -0.0137 0.0714
vn -0.9977 -0.0137 0.0659
vn -0.9977 0.0122 0.0656
vn -0.9974 0.0122 0.0705
vn -0.9974 -0.0159 0.0699
vn -0.9979 -0.0160 0.0633
vn -0.9980 0.0103 0.0620
vn -0.9977 0.0103 0.0663
vn -0.9977 -0.0164 0.0652
vn -0.9982 -0.0164 0.0581
vn -0.9983 0.0109 0.0568
vn -0.9966 0.0441 0.0691
vn -0.9967 0.0107 0.0804
vn -0.0002 0.0013 1.0000
vn -0.9966 -0.0317 0.0755
vn -0.0003 0.0000 1.0000
vn -0.9975 0.0045 0.0701
vn -0.0002 -0.0013 1.0000
vn -0.9972 0.0137 0.0736
vn -0.9972 -0.0137 0.0736
vn -0.9974 0.0025 0.0717
vn 0.9939 -0.0188 0.1088
vn 0.9944 -0.0196 0.1035
vn 0.9950 -0.0156 0.0983
vn 0.9955 -0.0052 0.0950
vn 0.9956 -0.0038 0.0935
vn 0.9958 -0.0186 0.0900
vn 0.9962 -0.0295 0.0818
vn 0.9972 -0.0162 0.0731
vn 0.9975 0.0045 0.0707
vn 0.9973 0.0061 0.0728
vn 0.9973 -0.0137 0.0714
vn 0.9977 -0.0137 0.0659
vn 0.9977 0.0122 0.0656
vn 0.9974 0.0122 0.0705
vn 0.9974 -0.0159 0.0699
vn 0.9979 -0.0160 0.0633
vn 0.9980 0.0103 0.0620
vn 0.9977 0.0103 0.0663
vn 0.9977 -0.0164 0.0652
vn 0.9982 -0.0164 0.0581
vn 0.9983 0.0109 0.0568
vn 0.9966 0.0441 0.0691
vn 0.9967 0.0107 0.0797
vn 0.9965 -0.0314 0.0778
vn 0.9976 0.0042 0.0693
vn 0.9972 0.0137 0.0736
vn 0.9972 -0.0137 0.0736
vn 0.9974 0.0025 0.0717
vn 0.0000 -0.2326 -0.9726
vn 0.0000 -0.2197 -0.9756
vn 0.0000 -0.1805 -0.9836
vn 0.0000 -0.0587 -0.9983
vn 0.0000 -0.0382 -0.9993
vn 0.0000 -0.1581 -0.9874
vn 0.0000 -0.2667 -0.9638
vn 0.0000 -0.1521 -0.9883
vn 0.0000 0.0402 -0.9992
vn 0.0000 0.0484 -0.9988
vn 0.0000 -0.0970 -0.9953
vn 0.0000 -0.1211 -0.9926
vn 0.0000 0.1068 -0.9943
vn 0.0000 0.0876 -0.9961
vn 0.0000 -0.1086 -0.9941
vn 0.0000 -0.1395 -0.9902
vn 0.0000 0.0865 -0.9962
vn 0.0000 0.0735 -0.9973
vn 0.0000 -0.1078 -0.9941
vn 0.0000 -0.1377 -0.9904
vn 0.0000 0.0879 -0.9961
vn 0.0000 0.3934 -0.9193
vn -0.0000 0.0418 -0.9991
vn 0.0000 -0.2968 -0.9549
vn 0.0001 0.0447 -0.9990
vn 0.0000 0.0989 -0.9951
vn 0.0000 -0.0989 -0.9951
vn 0.0000 0.0251 -0.9997
vn -0.9832 0.1533 0.0990
vn -0.2247 -0.9743 -0.0112
vn 0.0000 -0.9947 0.1026
vn 0.0000 0.0389 -0.9992
vn 0.0000 -0.9941 -0.1079
vn 0.2247 -0.9743 -0.0112
vn 0.0000 0.6887 0.7250
vn -0.1216 0.6885 0.7149
vn -0.1216 -0.6885 0.7149
vn 0.0000 -0.6887 0.7250
vn -0.2423 0.6880 0.6840
vn -0.2423 -0.6880 0.6840
vn -0.3605 0.6871 0.6308
vn -0.3605 -0.6871 0.6308
vn -0.4730 0.6859 0.5529
vn -0.4730 -0.6859 0.5529
vn -0.5745 0.6846 0.4486
vn -0.5745 -0.6846 0.4486
vn -0.6571 0.6834 0.3180
vn -0.6571 -0.6834 0.3180
vn -0.7119 0.6825 0.1654
vn -0.7119 -0.6825 0.1654
vn -0.7312 0.6821 0.0000
vn -0.7312 -0.6821 0.0000
vn -0.7119 0.6825 -0.1654
vn -0.7119 -0.6825 -0.1654
vn -0.6571 0.6834 -0.3180
vn -0.6571 -0.6834 -0.3180
vn -0.5745 0.6846 -0.4486
vn -0.5745 -0.6846 -0.4486
vn -0.4730 0.6859 -0.5529
vn -0.4730 -0.6859 -0.5529
vn -0.3605 0.6871 -0.6308
vn -0.3605 -0.6871 -0.6308
vn -0.2423 0.6880 -0.6840
vn -0.2423 -0.6880 -0.6840
vn -0.1216 0.6885 -0.7149
vn -0.1216 -0.6885 -0.7149
vn 0.0000 0.6887 -0.7250
vn 0.0000 -0.6887 -0.7250
vn 0.1216 0.6885 -0.7149
vn 0.1216 -0.6885 -0.7149
vn 0.2423 0.6880 -0.6840
vn 0.2423 -0.6880 -0.6840
vn 0.3605 0.6871 -0.6308
vn 0.3605 -0.6871 -0.6308
vn 0.4730 0.6859 -0.5529
vn 0.4730 -0.6859 -0.5529
vn 0.5745 0.6846 -0.4486
vn 0.5745 -0.6846 -0.4486
vn 0.6571 0.6834 -0.3180
vn 0.6571 -0.6834 -0.3180
vn 0.7119 0.6825 -0.1654
vn 0.7119 -0.6825 -0.1654
vn 0.7312 0.6821 0.0000
vn 0.7312 -0.6821 0.0000
vn 0.7119 0.6825 0.1654
vn 0.7119 -0.6825 0.1654
vn 0.6571 0.6834 0.3180
vn 0.6571 -0.6834 0.3180
vn 0.5745 0.6846 0.4486
vn 0.5745 -0.6846 0.4486
vn 0.4730 0.6859 0.5529
vn 0.4730 -0.6859 0.5529
vn 0.3605 0.6871 0.6308
vn 0.3605 -0.6871 0.6308
vn 0.2423 0.6880 0.6840
vn 0.2423 -0.6880 0.6840
vn 0.1216 -0.6885 0.7149
vn 0.1216 0.6885 0.7149
usemtl None
s 1
f 1/1/1 2/2/2 5/3/3
f 2/2/2 3/4/4 5/3/3
f 40/5/5 7/6/6 8/7/7 39/8/8
f 3/4/4 4/9/9 5/3/3
f 4/9/9 1/1/1 5/3/3
f 9/10/10 129/11/11 130/12/12 10/13/13
f 69/14/14 10/13/13 7/6/6 40/5/5
f 98/15/15 9/10/10 10/13/13 69/14/14
f 39/8/8 8/7/7 9/10/10 98/15/15
f 2/2/2 11/16/16 126/17/15 3/4/4
f 11/16/16 12/18/17 125/19/15 126/17/15
f 12/18/17 13/20/18 124/21/15 125/19/15
f 13/20/18 14/22/19 123/23/15 124/21/15
f 14/22/19 15/24/20 122/25/15 123/23/15
f 15/24/20 16/26/21 121/27/15 122/25/15
f 16/26/21 17/28/22 120/29/15 121/27/15
f 17/28/22 18/30/23 119/31/15 120/29/15
f 18/30/23 19/32/24 118/33/15 119/31/15
f 19/32/24 20/34/25 117/35/15 118/33/15
f 20/34/25 21/36/26 116/37/15 117/35/15
f 21/36/26 22/38/27 115/39/15 116/37/15
f 22/38/27 23/40/28 114/41/15 115/39/15
f 23/40/28 24/42/29 113/43/15 114/41/15
f 24/42/29 25/44/30 112/45/15 113/43/15
f 25/44/30 26/46/31 111/47/15 112/45/15
f 26/46/31 27/48/32 110/49/15 111/47/15
f 27/48/32 28/50/33 109/51/15 110/49/15
f 28/50/33 29/52/34 108/53/15 109/51/15
f 29/52/34 30/54/35 107/55/15 108/53/15
f 30/54/35 31/56/36 106/57/15 107/55/15
f 31/56/36 32/58/37 105/59/15 106/57/15
f 32/58/37 33/60/38 104/61/39 105/59/15
f 33/60/38 34/62/40 103/63/41 104/61/39
f 34/62/40 35/64/42 102/65/43 103/63/41
f 35/64/42 36/66/44 101/67/15 102/65/43
f 36/66/44 37/68/45 100/69/15 101/67/15
f 37/68/45 38/70/46 99/71/15 100/69/15
f 38/70/46 39/8/8 98/15/15 99/71/15
f 3/4/4 126/17/15 97/72/47 4/9/9
f 126/17/15 125/19/15 96/73/48 97/72/47
f 125/19/15 124/21/15 95/74/49 96/73/48
f 124/21/15 123/23/15 94/75/50 95/74/49
f 123/23/15 122/25/15 93/76/51 94/75/50
f 122/25/15 121/27/15 92/77/52 93/76/51
f 121/27/15 120/29/15 91/78/53 92/77/52
f 120/29/15 119/31/15 90/79/54 91/78/53
f 119/31/15 118/33/15 89/80/55 90/79/54
f 118/33/15 117/35/15 88/81/56 89/80/55
f 117/35/15 116/37/15 87/82/57 88/81/56
f 116/37/15 115/39/15 86/83/58 87/82/57
f 115/39/15 114/41/15 85/84/59 86/83/58
f 114/41/15 113/43/15 84/85/60 85/84/59
f 113/43/15 112/45/15 83/86/61 84/85/60
f 112/45/15 111/47/15 82/87/62 83/86/61
f 111/47/15 110/49/15 81/88/63 82/87/62
f 110/49/15 109/51/15 80/89/64 81/88/63
f 109/51/15 108/53/15 79/90/65 80/89/64
f 108/53/15 107/55/15 78/91/66 79/90/65
f 107/55/15 106/57/15 77/92/67 78/91/66
f 106/57/15 105/59/15 76/93/68 77/92/67
f 105/59/15 104/61/39 75/94/69 76/93/68
f 104/61/39 103/63/41 74/95/70 75/94/69
f 103/63/41 102/65/43 73/96/71 74/95/70
f 102/65/43 101/67/15 72/97/72 73/96/71
f 101/67/15 100/69/15 71/98/73 72/97/72
f 100/69/15 99/71/15 70/99/74 71/98/73
f 99/71/15 98/15/15 69/14/14 70/99/74
f 4/9/9 97/72/47 68/100/75 1/1/1
f 97/72/47 96/73/48 67/101/76 68/100/75
f 96/73/48 95/74/49 66/102/77 67/101/76
f 95/74/49 94/75/50 65/103/78 66/102/77
f 94/75/50 93/76/51 64/104/79 65/103/78
f 93/76/51 92/77/52 63/105/80 64/104/79
f 92/77/52 91/78/53 62/106/81 63/105/80
f 91/78/53 90/79/54 61/107/82 62/106/81
f 90/79/54 89/80/55 60/108/83 61/107/82
f 89/80/55 88/81/56 59/109/84 60/108/83
f 88/81/56 87/82/57 58/110/85 59/109/84
f 87/82/57 86/83/58 57/111/86 58/110/85
f 86/83/58 85/84/59 56/112/87 57/111/86
f 85/84/59 84/85/60 55/113/88 56/112/87
f 84/85/60 83/86/61 54/114/89 55/113/88
f 83/86/61 82/87/62 53/115/90 54/114/89
f 82/87/62 81/88/63 52/116/91 53/115/90
f 81/88/63 80/89/64 51/117/92 52/116/91
f 80/89/64 79/90/65 50/118/93 51/117/92
f 79/90/65 78/91/66 49/119/94 50/118/93
f 78/91/66 77/92/67 48/120/95 49/119/94
f 77/92/67 76/93/68 47/121/96 48/120/95
f 76/93/68 75/94/69 46/122/97 47/121/96
f 75/94/69 74/95/70 45/123/98 46/122/97
f 74/95/70 73/96/71 44/124/99 45/123/98
f 73/96/71 72/97/72 43/125/100 44/124/99
f 72/97/72 71/98/73 42/126/101 43/125/100
f 71/98/73 70/99/74 41/127/102 42/126/101
f 70/99/74 69/14/14 40/5/5 41/127/102
f 1/1/1 68/100/75 11/16/16 2/2/2
f 68/100/75 67/101/76 12/18/17 11/16/16
f 67/101/76 66/102/77 13/20/18 12/18/17
f 66/102/77 65/103/78 14/22/19 13/20/18
f 65/103/78 64/104/79 15/24/20 14/22/19
f 64/104/79 63/105/80 16/26/21 15/24/20
f 63/105/80 62/106/81 17/28/22 16/26/21
f 62/106/81 61/107/82 18/30/23 17/28/22
f 61/107/82 60/108/83 19/32/24 18/30/23
f 60/108/83 59/109/84 20/34/25 19/32/24
f 59/109/84 58/110/85 21/36/26 20/34/25
f 58/110/85 57/111/86 22/38/27 21/36/26
f 57/111/86 56/112/87 23/40/28 22/38/27
f 56/112/87 55/113/88 24/42/29 23/40/28
f 55/113/88 54/114/89 25/44/30 24/42/29
f 54/114/89 53/115/90 26/46/31 25/44/30
f 53/115/90 52/116/91 27/48/32 26/46/31
f 52/116/91 51/117/92 28/50/33 27/48/32
f 51/117/92 50/118/93 29/52/34 28/50/33
f 50/118/93 49/119/94 30/54/35 29/52/34
f 49/119/94 48/120/95 31/56/36 30/54/35
f 48/120/95 47/121/96 32/58/37 31/56/36
f 47/121/96 46/122/97 33/60/38 32/58/37
f 46/122/97 45/123/98 34/62/40 33/60/38
f 45/123/98 44/124/99 35/64/42 34/62/40
f 44/124/99 43/125/100 36/66/44 35/64/42
f 43/125/100 42/126/101 37/68/45 36/66/44
f 42/126/101 41/127/102 38/70/46 37/68/45
f 41/127/102 40/5/5 39/8/8 38/70/46
f 128/128/103 132/129/104 133/130/105 129/11/11
f 7/6/6 127/131/106 128/128/103 8/7/7
f 10/13/13 130/12/12 127/131/106 7/6/6
f 8/7/7 128/128/103 129/11/11 9/10/10
f 131/132/107 134/133/108 133/134/105 132/135/104
f 129/11/11 133/130/105 134/136/108 130/12/12
f 127/131/106 131/137/107 132/129/104 128/128/103
f 130/12/12 134/136/108 131/137/107 127/131/106
f 135/138/109 137/139/110 138/140/111 136/141/112
f 137/139/110 139/142/113 140/143/114 138/140/111
f 139/142/113 141/144/115 142/145/116 140/143/114
f 141/144/115 143/146/117 144/147/118 142/145/116
f 143/146/117 145/148/119 146/149/120 144/147/118
f 145/148/119 147/150/121 148/151/122 146/149/120
f 147/150/121 149/152/123 150/153/124 148/151/122
f 149/152/123 151/154/125 152/155/126 150/153/124
f 151/154/125 153/156/127 154/157/128 152/155/126
f 153/156/127 155/158/129 156/159/130 154/157/128
f 155/158/129 157/160/131 158/161/132 156/159/130
f 157/160/131 159/162/133 160/163/134 158/161/132
f 159/162/133 161/164/135 162/165/136 160/163/134
f 161/164/135 163/166/137 164/167/138 162/165/136
f 163/166/137 165/168/139 166/169/140 164/167/138
f 165/168/139 167/170/141 168/171/142 166/169/140
f 167/170/141 169/172/143 170/173/144 168/171/142
f 169/172/143 171/174/145 172/175/146 170/173/144
f 171/174/145 173/176/147 174/177/148 172/175/146
f 173/176/147 175/178/149 176/179/150 174/177/148
f 175/178/149 177/180/151 178/181/152 176/179/150
f 177/180/151 179/182/153 180/183/154 178/181/152
f 179/182/153 181/184/155 182/185/156 180/183/154
f 181/184/155 183/186/157 184/187/158 182/185/156
f 183/186/157 185/188/159 186/189/160 184/187/158
f 185/188/159 187/190/161 188/191/162 186/189/160
f 187/190/161 189/192/163 190/193/164 188/191/162
f 189/192/163 191/194/165 192/195/166 190/193/164
f 191/194/165 193/196/167 194/197/168 192/195/166
f 193/196/167 195/198/169 196/199/170 194/197/168
f 138/200/111 140/201/114 142/202/116 144/203/118 146/204/120 148/205/122 150/206/124 152/207/126 154/208/128 156/209/130 158/210/132 160/211/134 162/212/136 164/213/138 166/214/140 168/215/142 170/216/144 172/217/146 174/218/148 176/219/150 178/220/152 180/221/154 182/222/156 184/223/158 186/224/160 188/225/162 190/226/164 192/227/166 194/228/168 196/229/170 198/230/171 136/231/112
f 195/198/169 197/232/172 198/233/171 196/199/170
f 197/232/172 135/234/109 136/235/112 198/233/171
f 135/236/109 197/237/172 195/238/169 193/239/167 191/240/165 189/241/163 187/242/161 185/243/159 183/244/157 181/245/155 179/246/153 177/247/151 175/248/149 173/249/147 171/250/145 169/251/143 167/252/141 165/253/139 163/254/137 161/255/135 159/256/133 157/257/131 155/258/129 153/259/127 151/260/125 149/261/123 147/262/121 145/263/119 143/264/117 141/265/115 139/266/113 137/267/110
l 2 6
